<?xml version="1.0" encoding="UTF-8"?>
<svg version="1.1" xmlns="http://www.w3.org/2000/svg" width="400" height="400">
<path d="M0 0 C0.99 0 1.98 0 3 0 C3.4021875 0.98613281 3.4021875 0.98613281 3.8125 1.9921875 C4.4003125 3.41917969 4.4003125 3.41917969 5 4.875 C5.4434375 5.96167969 5.886875 7.04835938 6.34375 8.16796875 C7.53266556 10.9983984 8.84660056 13.74223217 10.21875 16.48828125 C10.59515625 17.26510254 10.9715625 18.04192383 11.359375 18.84228516 C12.10650977 20.37845308 12.87668641 21.90367504 13.671875 23.41552734 C15.6828812 27.6223197 16.33941983 30.18804922 14.88671875 34.703125 C14.29139439 36.14969729 13.66468365 37.58395687 13 39 C12.54238281 40.01191406 12.08476562 41.02382812 11.61328125 42.06640625 C11.18402344 42.89011719 10.75476563 43.71382812 10.3125 44.5625 C9.87550781 45.40941406 9.43851562 46.25632813 8.98828125 47.12890625 C8.66214844 47.74636719 8.33601563 48.36382812 8 49 C4.95623822 46.97082548 4.25189126 46.27417715 3 43 C3 41.68 3 40.36 3 39 C-0.06516112 41.80843857 -1.90447144 44.36424818 -3.6640625 48.12109375 C-4.37973389 49.63159302 -4.37973389 49.63159302 -5.10986328 51.17260742 C-5.6098584 52.25002197 -6.10985352 53.32743652 -6.625 54.4375 C-7.15206543 55.55552002 -7.67913086 56.67354004 -8.22216797 57.82543945 C-9.30363088 60.11976254 -10.3819183 62.41558512 -11.45703125 64.71289062 C-12.84258374 67.66464359 -14.24368899 70.60797526 -15.65625 73.546875 C-20.36235089 83.34020468 -24.91605541 93.19177643 -29.38012695 103.09765625 C-32.45620222 109.88926017 -35.71149687 116.56537026 -39.11328125 123.19921875 C-41.53276124 128.07324366 -43.74828823 133.04623412 -46 138 C-14.98 138 16.04 138 48 138 C45.97924882 132.6113302 43.93938286 127.68020331 41.3125 122.625 C37.85683736 115.86349839 34.70874852 109.00019359 31.70239258 102.02783203 C30.35467589 98.92664953 29.08093223 96.1221918 27.20703125 93.29296875 C26 91 26 91 26.05859375 88.67578125 C27.36394583 84.96554816 29.15942267 81.62224233 31.0625 78.1875 C31.62807617 77.14819336 31.62807617 77.14819336 32.20507812 76.08789062 C33.13083852 74.38871015 34.06462312 72.69390575 35 71 C37.85837235 72.42918617 38.01921062 74.15584012 39.16796875 77.11328125 C42.20822386 84.64434161 45.74330415 91.89921295 49.3125 99.1875 C50.65524158 101.94193245 51.99562875 104.69750808 53.3359375 107.453125 C53.65966843 108.11795395 53.98339935 108.7827829 54.31694031 109.46775818 C56.73445383 114.43757808 59.1051644 119.42725269 61.4375 124.4375 C63.82778564 129.56885757 66.31349534 134.63955078 68.875 139.6875 C72.61733832 147.06886912 76.02738269 154.58788274 79.42260742 162.1340332 C82.00541813 167.86022205 84.71321949 173.49288542 87.57421875 179.0859375 C89.65753604 183.34389557 91.51135447 187.69544643 93.37988281 192.05102539 C95.67705673 197.36853383 98.22722564 202.52151068 100.93359375 207.64453125 C102 210 102 210 102 213 C99.24763726 213.16225719 96.50482524 213.2809328 93.75 213.375 C92.97269531 213.42527344 92.19539062 213.47554687 91.39453125 213.52734375 C89.12724761 213.58547923 87.20428216 213.5408004 85 213 C81.64932315 209.30651463 79.9932381 204.96643263 78.125 200.375 C75.90276566 195.03143807 73.48039322 189.84845632 70.84765625 184.6953125 C67.69895608 178.47084094 64.76279804 172.1385112 61.7824707 165.83227539 C61.32316162 164.86539795 60.86385254 163.89852051 60.390625 162.90234375 C59.97844727 162.03085693 59.56626953 161.15937012 59.14160156 160.26147461 C57.96340042 157.81485407 57.96340042 157.81485407 56 155 C53.96733486 154.55421294 53.96733486 154.55421294 51.58346558 154.63923645 C50.6551593 154.63511246 49.72685303 154.63098846 48.77041626 154.6267395 C47.74902557 154.63752533 46.72763489 154.64831116 45.67529297 154.65942383 C44.60210815 154.65898575 43.52892334 154.65854767 42.42321777 154.65809631 C38.86269166 154.66019259 35.30263173 154.68356358 31.7421875 154.70703125 C29.27882138 154.71262421 26.81545194 154.71689572 24.3520813 154.71989441 C17.85824422 154.73136675 11.36460739 154.76085461 4.87084961 154.79400635 C-1.75143728 154.82465572 -8.37375643 154.83838876 -14.99609375 154.85351562 C-27.99748143 154.88572191 -40.99873008 154.93637314 -54 155 C-55.28162981 157.55828226 -56.56272069 160.11683202 -57.84350586 162.67553711 C-58.20408836 163.3951638 -58.56467087 164.1147905 -58.93618011 164.85622406 C-61.54151963 170.06253468 -64.08895787 175.29215861 -66.5625 180.5625 C-66.9339917 181.34987549 -67.3054834 182.13725098 -67.68823242 182.94848633 C-70.61395144 189.15647484 -73.51182589 195.37740161 -76.39453125 201.60546875 C-78.20430419 205.43197164 -80.10699168 209.21398336 -82 213 C-87.94 213 -93.88 213 -100 213 C-99.28200954 210.12803817 -98.60421613 207.88323349 -97.43359375 205.234375 C-97.11737061 204.51813965 -96.80114746 203.8019043 -96.4753418 203.06396484 C-95.96161011 201.91855225 -95.96161011 201.91855225 -95.4375 200.75 C-95.07889893 199.94643066 -94.72029785 199.14286133 -94.35083008 198.31494141 C-91.78518061 192.61811116 -89.05111374 187.02848569 -86.21264648 181.46386719 C-83.13753379 175.38624142 -80.31562907 169.20132303 -77.5 163 C-74.10419903 155.52645204 -70.63172159 148.11744869 -66.91577148 140.7980957 C-63.17117335 133.40902238 -59.6624981 125.90984025 -56.13671875 118.41455078 C-53.16298002 112.09791074 -50.16807358 105.79124004 -47.17675781 99.48291016 C-46.37079402 97.78235999 -45.56548781 96.08149807 -44.76074219 94.38037109 C-40.5498545 85.48045413 -36.33080612 76.59283198 -31.875 67.8125 C-28.64463269 61.44179068 -25.71994921 54.96204553 -22.85449219 48.42016602 C-21.04568861 44.30509351 -19.17281316 40.25358978 -17.125 36.25 C-13.71494543 29.57978337 -10.66990776 22.74740485 -7.60205078 15.91503906 C-5.18441943 10.54443689 -2.67339924 5.24823999 0 0 Z " fill="#155C81" transform="translate(183,42)"/>
<path d="M0 0 C3 1 3 1 4.76171875 4 C5.41433492 5.32813414 6.05546464 6.66194938 6.6875 8 C7.20969116 9.07544067 7.20969116 9.07544067 7.74243164 10.17260742 C8.8401892 12.44291915 9.92199736 14.7202494 11 17 C11.33193359 17.69818848 11.66386719 18.39637695 12.00585938 19.11572266 C14.00903484 23.33298676 15.99014959 27.56032329 17.96582031 31.79052734 C19.73675023 35.57402964 21.52402418 39.34976682 23.3125 43.125 C23.68383057 43.90883057 24.05516113 44.69266113 24.43774414 45.50024414 C30.22278449 57.69921353 36.06258857 69.87215447 41.8984375 82.046875 C46.98937653 92.672272 52.03471183 103.31534952 57 114 C60.86025887 122.30035911 64.75202979 130.57635616 68.875 138.75 C73.75197894 148.41945577 78.37038188 158.21034231 83 168 C84.26875858 170.68067886 85.53770895 173.36126671 86.80688477 176.04174805 C87.58274085 177.68093652 88.35800132 179.32040709 89.13256836 180.96020508 C89.4806958 181.69650146 89.82882324 182.43279785 90.1875 183.19140625 C90.49042969 183.83279541 90.79335938 184.47418457 91.10546875 185.13500977 C91.73179822 186.44083149 92.40566566 187.72441567 93.11328125 188.98803711 C94 191 94 191 94 195 C88.06 194.67 82.12 194.34 76 194 C71.54698752 185.17349313 67.1830825 176.32837674 63.00634766 167.3684082 C60.70717319 162.45469573 58.31928598 157.5930045 55.875 152.75 C46 133.14976761 46 133.14976761 46 130 C44.7315625 130.15275391 44.7315625 130.15275391 43.4375 130.30859375 C39.50217103 130.45616859 36.73134344 130.31894694 33 129 C29.22575068 124.99290226 25 117.53887448 25 112 C25.63808594 111.95101562 26.27617187 111.90203125 26.93359375 111.8515625 C28.17302734 111.73941406 28.17302734 111.73941406 29.4375 111.625 C30.26121094 111.55539063 31.08492188 111.48578125 31.93359375 111.4140625 C32.95646484 111.20910156 32.95646484 111.20910156 34 111 C35.25652083 109.07109606 35.25652083 109.07109606 34.41430664 107.19091797 C34.08293701 106.46533691 33.75156738 105.73975586 33.41015625 104.9921875 C32.85847778 103.77269409 32.85847778 103.77269409 32.2956543 102.52856445 C31.88871338 101.65288818 31.48177246 100.77721191 31.0625 99.875 C30.64718018 98.9677417 30.23186035 98.0604834 29.80395508 97.12573242 C27.06266845 91.17852546 24.20954653 85.29630389 21.24584961 79.45727539 C17.94910806 72.95223553 14.78331027 66.38568323 11.625 59.8125 C11.10059326 58.72428955 10.57618652 57.6360791 10.03588867 56.51489258 C9.54193604 55.48517334 9.0479834 54.4554541 8.5390625 53.39453125 C7.87704834 52.01551636 7.87704834 52.01551636 7.20166016 50.60864258 C4 43.658269 4 43.658269 4 40 C3.01 40 2.02 40 1 40 C0.73896484 40.58265625 0.47792969 41.1653125 0.20898438 41.765625 C-5.27458777 53.98121829 -10.90898231 66.07611067 -17 78 C-22.71174035 89.18713281 -27.96404414 100.48924375 -33 112 C-26.4 112 -19.8 112 -13 112 C-7 123.375 -7 123.375 -7 129 C-24.49 129 -41.98 129 -60 129 C-59.02015534 125.08062137 -57.66626222 121.95510833 -55.9375 118.3125 C-55.47331665 117.33108032 -55.47331665 117.33108032 -54.99975586 116.32983398 C-54.33931755 114.93348341 -53.67757848 113.53774745 -53.01464844 112.14257812 C-52.01469421 110.03102897 -51.02518289 107.91491579 -50.0390625 105.796875 C-46.75180537 98.74797847 -43.39344978 91.74911321 -39.875 84.8125 C-36.25487553 77.67057105 -33.0532263 70.40176072 -30 63 C-29.34 63 -28.68 63 -28 63 C-27.86464844 62.00613281 -27.86464844 62.00613281 -27.7265625 60.9921875 C-26.77861588 57.0882783 -25.12818543 53.72602736 -23.375 50.125 C-22.6416369 48.59388896 -21.90856916 47.06263641 -21.17578125 45.53125 C-20.80791504 44.76683594 -20.44004883 44.00242188 -20.06103516 43.21484375 C-18.53537218 40.03011883 -17.04916967 36.82812902 -15.5625 33.625 C-13.61455348 29.43719894 -11.65053638 25.25747264 -9.66796875 21.0859375 C-9.06650024 19.82015869 -9.06650024 19.82015869 -8.45288086 18.52880859 C-7.67236186 16.88792858 -6.89069186 15.24759539 -6.10766602 13.60791016 C-3.96824084 9.11095611 -1.92927821 4.59119372 0 0 Z " fill="#0AA9A2" transform="translate(223,42)"/>
<path d="M0 0 C4.29 0 8.58 0 13 0 C13.38671875 1.05058594 13.7734375 2.10117187 14.171875 3.18359375 C17.55058828 12.36913255 17.55058828 12.36913255 21.375 21.375 C23 25 23 25 23 27 C23.99 27 24.98 27 26 27 C26.17378174 26.46125244 26.34756348 25.92250488 26.52661133 25.36743164 C28.398957 19.64702491 30.48025136 14.0362622 32.6875 8.4375 C33.00783203 7.61958984 33.32816406 6.80167969 33.65820312 5.95898438 C34.43678254 3.97186378 35.21809845 1.98581573 36 0 C38.29141286 -0.05384521 40.58318188 -0.09272087 42.875 -0.125 C44.78925781 -0.15980469 44.78925781 -0.15980469 46.7421875 -0.1953125 C50 0 50 0 52 2 C53.03807389 4.74120905 54.0106003 7.47163566 54.9375 10.25 C56.33639094 14.42162874 57.70899786 18.42202807 59.69140625 22.359375 C61 25 61 25 61 28 C63.82499953 25.57170469 64.89932323 23.21205346 66.19140625 19.74609375 C66.77245117 18.21758789 66.77245117 18.21758789 67.36523438 16.65820312 C67.95788086 15.06395508 67.95788086 15.06395508 68.5625 13.4375 C69.3506587 11.33022594 70.14340922 9.22466187 70.94140625 7.12109375 C71.28888916 6.1870874 71.63637207 5.25308105 71.99438477 4.29077148 C73 2 73 2 75 0 C77.8203125 -0.1953125 77.8203125 -0.1953125 81.125 -0.125 C82.22070312 -0.10695313 83.31640625 -0.08890625 84.4453125 -0.0703125 C85.70988281 -0.03550781 85.70988281 -0.03550781 87 0 C86.40293727 4.39079606 85.3082506 8.17572445 83.671875 12.2890625 C82.96611328 14.07376953 82.96611328 14.07376953 82.24609375 15.89453125 C81.74744996 17.13804254 81.24875184 18.38153205 80.75 19.625 C80.03263672 21.43677734 80.03263672 21.43677734 79.30078125 23.28515625 C71.3541803 43.2916394 71.3541803 43.2916394 69 48 C64.71 48 60.42 48 56 48 C52.20016845 40.82254041 49.42155196 33.74050669 47 26 C46.33682474 23.99883958 45.67109961 21.99851689 45 20 C43.68 20 42.36 20 41 20 C40.9175 20.76699219 40.835 21.53398437 40.75 22.32421875 C39.71837927 27.38023495 37.86881019 32.01305564 36 36.8125 C35.63132812 37.77865234 35.26265625 38.74480469 34.8828125 39.74023438 C32.14158929 46.85841071 32.14158929 46.85841071 31 48 C28.81360547 48.07258946 26.62499611 48.08373783 24.4375 48.0625 C22.64119141 48.04896484 22.64119141 48.04896484 20.80859375 48.03515625 C19.88175781 48.02355469 18.95492187 48.01195312 18 48 C14.62627999 41.77159383 12.16094274 35.29767249 9.7265625 28.6640625 C8.46449088 25.22817356 7.16020417 21.8108367 5.8359375 18.3984375 C5.46952148 17.45121826 5.10310547 16.50399902 4.72558594 15.52807617 C4.0006554 13.65705426 3.27222503 11.78738403 2.54003906 9.91918945 C2.2097168 9.06284912 1.87939453 8.20650879 1.5390625 7.32421875 C1.24209473 6.56197998 0.94512695 5.79974121 0.63916016 5.0144043 C0 3 0 3 0 0 Z " fill="#323232" transform="translate(224,294)"/>
<path d="M0 0 C5.28 0 10.56 0 16 0 C16.97839844 2.37251953 16.97839844 2.37251953 17.9765625 4.79296875 C22.08255995 14.71749954 26.18271968 24.61487697 30.76953125 34.328125 C32.31150503 37.67641092 33.65934223 41.08223329 34.98828125 44.51953125 C36.50728082 48.24371938 38.27635674 51.84666721 40.046875 55.45703125 C41 58 41 58 41 63 C37.04 63 33.08 63 29 63 C25.71252437 56.71512011 22.88952071 50.36426938 20.31103516 43.76391602 C18.17653934 38.33993868 15.79093334 33.07439141 13.296875 27.8046875 C10 20.6746988 10 20.6746988 10 17 C6.87931355 17.69272051 6.87931355 17.69272051 5.60546875 20.16015625 C2.03079042 27.47692209 -0.94474589 34.87458334 -3.703125 42.53125 C-5 46 -5 46 -6.234375 48.28125 C-7.31362691 50.18393892 -7.31362691 50.18393892 -6 53 C-4.44539063 52.89558594 -4.44539063 52.89558594 -2.859375 52.7890625 C-1.48964826 52.73277236 -0.11985127 52.67817352 1.25 52.625 C1.93191406 52.57472656 2.61382812 52.52445312 3.31640625 52.47265625 C5.328125 52.4140625 5.328125 52.4140625 9 53 C12.20057017 56.57296355 13 58.16694873 13 63 C0.46 63 -12.08 63 -25 63 C-24.17554539 58.05327235 -23.1729076 54.5030672 -21.3125 49.9375 C-21.04630859 49.28193115 -20.78011719 48.6263623 -20.50585938 47.95092773 C-18.78624022 43.76365509 -16.93437622 39.65582382 -15 35.5625 C-12.43892974 30.12689515 -10.31679944 24.61574451 -8.26318359 18.97680664 C-5.86483468 12.46643708 -2.99027346 6.26533488 0 0 Z " fill="#343434" transform="translate(57,279)"/>
<path d="M0 0 C1.12986328 0.00837891 2.25972656 0.01675781 3.42382812 0.02539062 C4.59494141 0.05439453 5.76605469 0.08339844 6.97265625 0.11328125 C8.13990234 0.12294922 9.30714844 0.13261719 10.50976562 0.14257812 C14.86869114 0.19970364 19.05179125 0.25468891 23.35375977 1.00317383 C24.23862061 1.14263428 25.12348145 1.28209473 26.03515625 1.42578125 C26.36515625 1.09578125 26.69515625 0.76578125 27.03515625 0.42578125 C29.22155078 0.35319179 31.41016014 0.34204342 33.59765625 0.36328125 C35.39396484 0.37681641 35.39396484 0.37681641 37.2265625 0.390625 C38.15339844 0.40222656 39.08023438 0.41382813 40.03515625 0.42578125 C41.23350967 2.82248809 41.12255828 4.20476548 41.05688477 6.87548828 C41.03678848 7.79629181 41.0166922 8.71709534 40.99598694 9.665802 C40.96895187 10.66167328 40.94191681 11.65754456 40.9140625 12.68359375 C40.87864601 14.21087601 40.87864601 14.21087601 40.84251404 15.76901245 C40.76577504 19.0297403 40.68179469 22.29023674 40.59765625 25.55078125 C40.54444582 27.75780107 40.49170536 29.96483228 40.43945312 32.171875 C40.31014601 37.58999104 40.17434308 43.00791037 40.03515625 48.42578125 C35.74515625 48.42578125 31.45515625 48.42578125 27.03515625 48.42578125 C26.70515625 47.76578125 26.37515625 47.10578125 26.03515625 46.42578125 C25.36613281 46.57015625 24.69710937 46.71453125 24.0078125 46.86328125 C17.70833676 48.08089804 11.56228782 48.66583846 5.16015625 48.73828125 C4.44738525 48.75568359 3.73461426 48.77308594 3.00024414 48.79101562 C-2.91600406 48.78546632 -6.8823282 47.28315998 -11.27734375 43.36328125 C-13.76022703 39.04122516 -13.82697691 35.36026516 -13.96484375 30.42578125 C-13.990625 29.66088379 -14.01640625 28.89598633 -14.04296875 28.10791016 C-14.12338117 25.46384929 -14.17366976 22.82073112 -14.21484375 20.17578125 C-14.23643555 19.31202881 -14.25802734 18.44827637 -14.28027344 17.55834961 C-14.30607708 12.4298752 -13.9401161 8.79813801 -10.96484375 4.42578125 C-7.28800286 0.91488521 -5.06798648 -0.07210955 0 0 Z M2.07421875 10.7578125 C-0.39893894 14.72788142 -0.14828448 18.79498606 -0.15234375 23.30078125 C-0.16458984 24.00847656 -0.17683594 24.71617187 -0.18945312 25.4453125 C-0.20088672 29.53854003 0.0312862 32.81748368 2.03515625 36.42578125 C5.78657366 38.92672619 7.87448067 38.69347927 12.34765625 38.67578125 C13.64316406 38.6809375 14.93867188 38.68609375 16.2734375 38.69140625 C20.49036971 38.55028748 20.49036971 38.55028748 26.03515625 36.42578125 C26.03515625 28.17578125 26.03515625 19.92578125 26.03515625 11.42578125 C20.91999716 9.37971761 17.74410316 9.0905255 12.41015625 9.11328125 C11.64703125 9.09716797 10.88390625 9.08105469 10.09765625 9.06445312 C5.84545641 9.02377427 5.84545641 9.02377427 2.07421875 10.7578125 Z " fill="#343434" transform="translate(176.96484375,293.57421875)"/>
<path d="M0 0 C1.093125 0.00257813 2.18625 0.00515625 3.3125 0.0078125 C4.405625 0.00523437 5.49875 0.00265625 6.625 0 C9.3125 0.1328125 9.3125 0.1328125 10.3125 1.1328125 C10.38521741 3.48594805 10.39620868 5.84114918 10.375 8.1953125 C10.36597656 9.48566406 10.35695312 10.77601563 10.34765625 12.10546875 C10.33605469 13.10449219 10.32445312 14.10351562 10.3125 15.1328125 C14.2725 15.1328125 18.2325 15.1328125 22.3125 15.1328125 C22.3125 18.1028125 22.3125 21.0728125 22.3125 24.1328125 C18.3525 24.1328125 14.3925 24.1328125 10.3125 24.1328125 C10.42592562 28.42507689 10.55268537 32.71621335 10.6875 37.0078125 C10.7184375 38.23113281 10.749375 39.45445312 10.78125 40.71484375 C10.81992188 41.88144531 10.85859375 43.04804688 10.8984375 44.25 C10.94556885 45.86817627 10.94556885 45.86817627 10.99365234 47.51904297 C11.05926322 50.29042904 11.05926322 50.29042904 13.3125 52.1328125 C15.25241404 52.55418535 15.25241404 52.55418535 17.375 52.6953125 C21.3125 53.1328125 21.3125 53.1328125 22.3125 54.1328125 C22.38429964 55.65209288 22.39642007 57.17448732 22.375 58.6953125 C22.36597656 59.52160156 22.35695312 60.34789062 22.34765625 61.19921875 C22.33605469 61.83730469 22.32445312 62.47539062 22.3125 63.1328125 C7.44753548 63.87059567 7.44753548 63.87059567 1.5234375 58.515625 C-2.97557519 53.54752094 -3.8192935 49.96433819 -3.78515625 43.2734375 C-3.78032227 41.60087891 -3.78032227 41.60087891 -3.77539062 39.89453125 C-3.76701172 38.73566406 -3.75863281 37.57679688 -3.75 36.3828125 C-3.74548828 35.20847656 -3.74097656 34.03414063 -3.73632812 32.82421875 C-3.72455094 29.92703178 -3.70810326 27.02994796 -3.6875 24.1328125 C-4.491875 24.1534375 -5.29625 24.1740625 -6.125 24.1953125 C-8.6875 24.1328125 -8.6875 24.1328125 -9.6875 23.1328125 C-9.82865161 20.46222399 -9.72997107 17.80849012 -9.6875 15.1328125 C-8.0375 14.8028125 -6.3875 14.4728125 -4.6875 14.1328125 C-4.62691406 13.20597656 -4.56632813 12.27914063 -4.50390625 11.32421875 C-4.42011719 10.12667969 -4.33632812 8.92914063 -4.25 7.6953125 C-4.16878906 6.50035156 -4.08757812 5.30539062 -4.00390625 4.07421875 C-3.58469974 0.17715086 -3.58469974 0.17715086 0 0 Z " fill="#343434" transform="translate(135.6875,278.8671875)"/>
<path d="M0 0 C1.79244141 0.01740234 1.79244141 0.01740234 3.62109375 0.03515625 C5.41740234 0.04869141 5.41740234 0.04869141 7.25 0.0625 C8.17683594 0.07410156 9.10367187 0.08570313 10.05859375 0.09765625 C10.76691505 21.14491779 11.43554315 42.06210616 10.05859375 63.09765625 C5.76859375 63.09765625 1.47859375 63.09765625 -2.94140625 63.09765625 C-4.27879657 60.42287561 -4.06854954 58.3736477 -4.07080078 55.37866211 C-4.07395294 54.18079575 -4.0771051 52.98292938 -4.08035278 51.74876404 C-4.07832855 50.44979691 -4.07630432 49.15082977 -4.07421875 47.8125 C-4.07489207 46.47253909 -4.07586233 45.13257829 -4.07711792 43.7926178 C-4.07859306 40.98404782 -4.07644588 38.17550964 -4.07177734 35.36694336 C-4.06607465 31.75968623 -4.06936361 28.1525034 -4.07534981 24.54524899 C-4.07895568 21.77868587 -4.07781681 19.0121405 -4.07522202 16.24557686 C-4.07422692 14.26625139 -4.07727313 12.28692525 -4.08035278 10.30760193 C-4.07720062 9.11288773 -4.07404846 7.91817352 -4.07080078 6.68725586 C-4.07000519 5.62961533 -4.06920959 4.57197479 -4.06838989 3.48228455 C-3.88001341 -0.05524112 -3.59855079 0.1194738 0 0 Z " fill="#343434" transform="translate(320.94140625,278.90234375)"/>
<path d="M0 0 C4.29 0 8.58 0 13 0 C14.75308537 1.75308537 14.12760431 4.20973361 14.12939453 6.58959961 C14.13254669 7.78431381 14.13569885 8.97902802 14.13894653 10.20994568 C14.1369223 11.51093704 14.13489807 12.81192841 14.1328125 14.15234375 C14.13348567 15.49133827 14.13445581 16.83033268 14.13571167 18.16932678 C14.13718853 20.97967692 14.13503483 23.78999534 14.13037109 26.6003418 C14.12467928 30.20640819 14.12794939 33.81240007 14.13394356 37.41846371 C14.13755419 40.18506941 14.13640817 42.9516574 14.13381577 45.71826363 C14.13282203 47.69587884 14.13586474 49.67349473 14.13894653 51.65110779 C14.13579437 52.84897415 14.13264221 54.04684052 14.12939453 55.28100586 C14.12820114 56.86866005 14.12820114 56.86866005 14.12698364 58.48838806 C14 61 14 61 13 63 C8.71 63 4.42 63 0 63 C0 42.21 0 21.42 0 0 Z " fill="#323232" transform="translate(106,279)"/>
<path d="M0 0 C1.05960937 0.00676758 1.05960937 0.00676758 2.140625 0.01367188 C3.88545275 0.02546125 5.630237 0.04339676 7.375 0.0625 C6.27394955 3.44621603 4.69948128 6.18160917 2.703125 9.09375 C2.20425781 9.82207031 1.70539063 10.55039062 1.19140625 11.30078125 C0.1420448 12.81594404 -0.91800398 14.3237574 -1.98828125 15.82421875 C-4.94068964 19.90265195 -4.94068964 19.90265195 -5.28515625 24.69140625 C-3.12253748 27.78013471 -0.80178875 30.67351676 1.6875 33.5 C2.64212697 34.60269157 3.5965551 35.70555531 4.55078125 36.80859375 C5.97895216 38.45496429 7.40807818 40.10021418 8.84521484 41.73876953 C12.375 45.83839663 12.375 45.83839663 12.375 48.0625 C-1.39479937 49.73515048 -1.39479937 49.73515048 -6.375 46 C-8.66263458 43.12411653 -10.63757266 40.15235825 -12.625 37.0625 C-14.2703082 35.06554246 -15.93654712 33.08561351 -17.625 31.125 C-22.14702994 25.79434318 -22.14702994 25.79434318 -22.625 22.0625 C-21.86816406 20.21899414 -21.86816406 20.21899414 -20.640625 18.34765625 C-20.19976562 17.66123047 -19.75890625 16.97480469 -19.3046875 16.26757812 C-18.83289063 15.56052734 -18.36109375 14.85347656 -17.875 14.125 C-16.96334682 12.72017851 -16.05188405 11.31523343 -15.140625 9.91015625 C-14.70427734 9.24902832 -14.26792969 8.58790039 -13.81835938 7.90673828 C-12.80537292 6.34125144 -11.85621285 4.73475523 -10.921875 3.12109375 C-8.31096189 -1.02333761 -4.41063235 -0.05289504 0 0 Z " fill="#333333" transform="translate(355.625,293.9375)"/>
<path d="M0 0 C1.87939453 -0.34057617 1.87939453 -0.34057617 4.1328125 -0.29296875 C4.93847656 -0.28330078 5.74414062 -0.27363281 6.57421875 -0.26367188 C7.83685547 -0.2259668 7.83685547 -0.2259668 9.125 -0.1875 C9.97449219 -0.17396484 10.82398438 -0.16042969 11.69921875 -0.14648438 C13.79974837 -0.11108219 15.89995293 -0.05727401 18 0 C17.37510096 4.84770165 15.33154218 8.71345569 13.125 13 C12.77308594 13.69867188 12.42117187 14.39734375 12.05859375 15.1171875 C10.57639506 18.03750462 9.06846378 20.8873132 7.3671875 23.6875 C5.70951089 26.35688804 5.70951089 26.35688804 4 31 C-1.94 31 -7.88 31 -14 31 C-13.17896351 26.89481755 -12.33860458 24.26058123 -10.56640625 20.5859375 C-10.08236328 19.57789063 -9.59832031 18.56984375 -9.09960938 17.53125 C-8.59236328 16.4896875 -8.08511719 15.448125 -7.5625 14.375 C-7.05912109 13.32570312 -6.55574219 12.27640625 -6.03710938 11.1953125 C-2.29458841 3.44188262 -2.29458841 3.44188262 0 0 Z " fill="#09A9A2" transform="translate(146,205)"/>
<path d="M0 0 C1.093125 0.00257813 2.18625 0.00515625 3.3125 0.0078125 C4.405625 0.00523437 5.49875 0.00265625 6.625 0 C9.3125 0.1328125 9.3125 0.1328125 10.3125 1.1328125 C10.38508946 3.31920703 10.39623783 5.50781639 10.375 7.6953125 C10.36597656 8.89285156 10.35695312 10.09039062 10.34765625 11.32421875 C10.33605469 12.25105469 10.32445312 13.17789062 10.3125 14.1328125 C9.6525 13.8028125 8.9925 13.4728125 8.3125 13.1328125 C8.3125 9.5028125 8.3125 5.8728125 8.3125 2.1328125 C4.6825 2.1328125 1.0525 2.1328125 -2.6875 2.1328125 C-2.6875 6.4228125 -2.6875 10.7128125 -2.6875 15.1328125 C-3.3475 14.8028125 -4.0075 14.4728125 -4.6875 14.1328125 C-4.54720581 11.9866099 -4.40011836 9.84085032 -4.25 7.6953125 C-4.16878906 6.50035156 -4.08757812 5.30539062 -4.00390625 4.07421875 C-3.58469974 0.17715086 -3.58469974 0.17715086 0 0 Z " fill="#4D4D4D" transform="translate(135.6875,278.8671875)"/>
<path d="M0 0 C2.475 0.495 2.475 0.495 5 1 C4.01 3.31 3.02 5.62 2 8 C-3.94 8 -9.88 8 -16 8 C-15.67 7.01 -15.34 6.02 -15 5 C-15 5.66 -15 6.32 -15 7 C-9.72 7 -4.44 7 1 7 C0.67 4.69 0.34 2.38 0 0 Z " fill="#31B6B0" transform="translate(148,228)"/>
<path d="M0 0 C3.96 0 7.92 0 12 0 C12 0.66 12 1.32 12 2 C9.03 2 6.06 2 3 2 C3 2.99 3 3.98 3 5 C2.34 5 1.68 5 1 5 C0.67 3.35 0.34 1.7 0 0 Z " fill="#292929" transform="translate(224,295)"/>
<path d="M0 0 C0.66 0.33 1.32 0.66 2 1 C0.92289822 5.30840713 -0.03947516 8.63576723 -3 12 C-3.66 11.67 -4.32 11.34 -5 11 C-3.35 7.37 -1.7 3.74 0 0 Z " fill="#1DAFA9" transform="translate(193,105)"/>
<path d="M0 0 C2 1 2 1 2.8515625 3.06640625 C3.10679687 3.89011719 3.36203125 4.71382812 3.625 5.5625 C3.88539063 6.38878906 4.14578125 7.21507812 4.4140625 8.06640625 C4.60742188 8.70449219 4.80078125 9.34257812 5 10 C3.68 9.67 2.36 9.34 1 9 C0.67 6.03 0.34 3.06 0 0 Z " fill="#20ACA6" transform="translate(274,146)"/>
<path d="M0 0 C2.475 0.495 2.475 0.495 5 1 C4.34 2.98 3.68 4.96 3 7 C2.34 7 1.68 7 1 7 C0.67 4.69 0.34 2.38 0 0 Z " fill="#24AFA9" transform="translate(148,228)"/>
<path d="M0 0 C0.97140086 3.02213602 1.19248372 5.0187907 0 8 C-0.99 8.66 -1.98 9.32 -3 10 C-2.49287967 6.28111761 -1.88391785 3.26545761 0 0 Z " fill="#1CAEA7" transform="translate(138,220)"/>
<path d="M0 0 C0.33 0 0.66 0 1 0 C1 2.31 1 4.62 1 7 C-0.98 7.99 -0.98 7.99 -3 9 C-2.01 6.03 -1.02 3.06 0 0 Z " fill="#206286" transform="translate(120,174)"/>
</svg>
