<svg xmlns="http://www.w3.org/2000/svg" width="512" height="512" viewBox="0 0 512 512" version="1.1">
	<path d="M 246.931 3.892 C 245.518 4.353, 239.443 7.555, 233.431 11.008 C 212.122 23.246, 184.281 39.425, 168 49.031 C 158.925 54.385, 146.550 61.572, 140.500 65.002 C 112.630 80.802, 93.602 92.682, 91.254 95.748 C 85.960 102.659, 86.091 100.290, 86.044 190.068 C 86.006 262.064, 86.211 274.347, 87.522 278.762 C 89.550 285.590, 97.182 293.858, 106.379 299.191 C 114.698 304.016, 171.813 338.078, 183.500 345.186 L 191.500 350.052 191.755 244.373 C 191.938 168.248, 192.322 138.317, 193.128 137.346 C 193.743 136.604, 199.929 132.511, 206.873 128.249 L 219.500 120.500 247 120.500 C 273.140 120.500, 274.831 120.614, 281.190 122.812 C 310.321 132.877, 324.973 162.603, 314.555 190.500 C 309.511 204.007, 297.705 216.188, 285 220.996 C 283.075 221.725, 281.124 222.647, 280.665 223.046 C 280.205 223.444, 288.383 236.590, 298.838 252.258 C 318.711 282.040, 319.796 283.227, 325.181 281.078 C 326.456 280.569, 333.300 276.607, 340.388 272.273 C 349.723 266.567, 354.135 263.210, 356.388 260.099 L 359.500 255.804 359.772 194.396 C 360.070 127.287, 360.261 129.702, 354.274 125.025 C 350.983 122.455, 317.788 102.756, 285.205 84.039 C 265.117 72.499, 261.190 70.597, 256.676 70.223 C 253.422 69.953, 250.128 70.338, 247.970 71.241 C 240.670 74.295, 159.491 122.309, 155.624 125.859 C 154.042 127.312, 151.914 130.300, 150.896 132.500 C 149.162 136.246, 149.043 140.175, 149.022 194.349 C 149.003 245.262, 149.191 252.601, 150.595 255.559 C 152.280 259.111, 158.155 264.747, 164.746 269.135 C 167.535 270.992, 168.895 272.727, 169.352 275.010 C 170.366 280.081, 170.111 297.813, 169.014 298.491 C 167.654 299.332, 135.387 279.698, 130.689 275.172 C 128.593 273.152, 125.319 268.350, 123.414 264.500 L 119.951 257.500 120.225 192.500 L 120.500 127.500 123.148 121.853 C 127.093 113.438, 133.812 107.261, 148 99.007 C 154.875 95.008, 170.175 86.002, 182 78.995 C 193.825 71.988, 212.725 60.958, 224 54.483 C 235.275 48.009, 246.067 41.652, 247.982 40.356 C 249.897 39.060, 252.544 38, 253.865 38 C 255.185 38, 262.618 41.685, 270.383 46.188 C 289.832 57.468, 320.405 74.874, 332.877 81.766 C 370.676 102.654, 380.597 109.900, 386 120.565 L 388.500 125.500 388.777 191.139 C 389.054 256.553, 389.047 256.798, 386.866 262.639 C 383.338 272.082, 377.634 276.951, 349.293 294.707 C 282.881 336.315, 258.618 351, 256.286 351 C 255.302 351, 255.002 347.885, 255.009 337.750 L 255.018 324.500 263.759 319.075 C 268.567 316.091, 278.008 310.312, 284.740 306.232 L 296.981 298.815 285.946 282.657 C 279.877 273.771, 268.969 257.611, 261.706 246.746 L 248.500 226.992 234.500 227.246 C 226.800 227.386, 220.613 227.838, 220.750 228.250 C 220.887 228.662, 221 260.023, 221 297.939 L 221 366.879 229.790 372.316 C 245.730 382.176, 248.736 383.440, 256.037 383.351 C 260.197 383.301, 263.832 382.626, 266.037 381.495 C 270.974 378.961, 312.204 354.426, 348.500 332.422 C 365.550 322.086, 386.475 309.413, 395 304.260 C 412.891 293.446, 416.029 290.721, 420.057 282.500 L 422.997 276.500 423.029 190.715 C 423.061 108.407, 422.985 104.759, 421.154 100.715 C 418.176 94.137, 413.039 90.178, 391 77.480 C 379.725 70.984, 362.625 61.082, 353 55.476 C 343.375 49.870, 330.100 42.241, 323.500 38.523 C 316.900 34.805, 304.525 27.625, 296 22.568 C 263.965 3.563, 264.263 3.708, 256.500 3.364 C 252.650 3.193, 248.344 3.430, 246.931 3.892 M 220.982 147.500 C 220.972 147.775, 220.957 159.588, 220.949 173.750 L 220.934 199.500 243.745 199.500 L 266.556 199.500 273.528 196 C 284.626 190.429, 289.731 181.825, 288.775 170.302 C 287.896 159.702, 279.026 150.486, 267.467 148.165 C 261.882 147.043, 221.019 146.459, 220.982 147.500 M 329.329 402.458 C 325.454 404.143, 324 406.668, 324 411.712 C 324 416.543, 326.058 419.534, 330.359 420.953 C 342.618 424.999, 348.425 406.534, 336.339 401.939 C 333.268 400.771, 333.193 400.777, 329.329 402.458 M 433.210 447.296 C 433.474 486.679, 433.659 490.834, 435.264 493.282 C 438.886 498.807, 445.956 501.406, 454.622 500.397 L 459.744 499.802 459.422 493.151 C 459.102 486.538, 459.081 486.496, 455.849 485.835 C 449.918 484.622, 450 485.228, 450 442.809 L 450 404 441.460 404 L 432.920 404 433.210 447.296 M 54.667 410.667 C 54.300 411.033, 54 431.058, 54 455.167 L 54 499 63 499 L 72 499 72 482.500 L 72 466 77.375 466 L 82.751 466 94.125 482.491 L 105.500 498.982 115.872 498.991 C 124.021 498.998, 126.037 498.732, 125.277 497.750 C 123.213 495.084, 109.159 476.174, 104.663 470.015 C 100.046 463.689, 99.986 463.514, 102.221 462.916 C 108.575 461.217, 114.152 456.543, 117.634 450 C 120.374 444.852, 120.188 430.987, 117.305 425.487 C 112.561 416.437, 105.857 412.471, 92.759 410.965 C 83.327 409.880, 55.670 409.664, 54.667 410.667 M 213 422.500 L 213 431 207 431 L 201 431 201 437.450 L 201 443.900 206.750 444.200 L 212.500 444.500 212.728 463.500 C 213.008 486.913, 213.893 491.821, 218.579 495.935 C 220.481 497.605, 223.266 499.240, 224.768 499.569 C 226.271 499.898, 228.143 500.371, 228.930 500.621 C 229.716 500.871, 234.104 500.771, 238.680 500.400 L 247 499.725 247 492.973 L 247 486.221 239.918 486.361 C 229.079 486.574, 229 486.404, 229 462.889 L 229 444 238 444 L 247 444 247 437.500 L 247 431 238 431 L 229 431 229 422.500 L 229 414 221 414 L 213 414 213 422.500 M 72 439.147 L 72 453.294 81.314 452.738 C 86.436 452.433, 92.276 451.494, 94.292 450.651 C 98.780 448.776, 101.991 443.795, 101.996 438.700 C 102.006 429.201, 95.624 425, 81.184 425 L 72 425 72 439.147 M 152.763 430.033 C 150.158 430.471, 145.771 431.580, 143.013 432.496 L 138 434.161 138 441.580 C 138 445.661, 138.241 449, 138.535 449 C 138.830 449, 140.067 448.348, 141.285 447.551 C 142.503 446.754, 146.182 445.404, 149.460 444.551 C 164.142 440.731, 174 444.564, 174 454.094 L 174 457.742 163.800 458.466 C 144.986 459.799, 135.767 464.618, 132.979 474.574 C 131.393 480.238, 132.279 488.097, 134.999 492.498 C 139.764 500.209, 155.056 503.131, 166.413 498.501 C 169.665 497.176, 172.696 495.508, 173.148 494.795 C 173.693 493.936, 173.975 494.426, 173.985 496.250 L 174 499 182.574 499 L 191.147 499 190.824 472.750 C 190.516 447.773, 190.389 446.275, 188.215 441.862 C 183.281 431.848, 169.431 427.226, 152.763 430.033 M 380.081 430.531 C 370.441 433.225, 362.888 439.603, 358.803 448.500 C 356.814 452.830, 356.506 455.107, 356.503 465.500 C 356.500 476.351, 356.750 478.033, 359.111 483.067 C 362.481 490.253, 367.842 495.391, 374.879 498.181 C 379.516 500.020, 382.513 500.416, 392 500.446 C 399.135 500.469, 404.946 499.975, 407.310 499.144 C 409.405 498.408, 411.880 497.695, 412.810 497.560 C 414.201 497.358, 414.552 495.939, 414.794 489.534 C 415.065 482.376, 414.945 481.813, 413.294 482.511 C 406.316 485.461, 402.470 486.340, 395 486.692 C 387.511 487.045, 386.035 486.819, 382.594 484.796 C 377.664 481.898, 375.114 478.477, 374.343 473.727 L 373.738 470 395.824 470 L 417.909 470 418.583 466.411 C 419.813 459.855, 418.462 449.464, 415.626 443.667 C 410.124 432.421, 394.276 426.564, 380.081 430.531 M 325 464.461 L 325 499 334.013 499 L 343.026 499 342.763 464.750 L 342.500 430.500 333.750 430.211 L 325 429.922 325 464.461 M 259 437.474 L 259 443.948 274.072 444.224 L 289.143 444.500 272.577 465.500 L 256.010 486.500 256.005 492.750 L 256 499 283.500 499 L 311 499 311 492.524 L 311 486.047 293.883 485.774 L 276.766 485.500 293.383 464.720 L 310 443.939 310 437.470 L 310 431 284.500 431 L 259 431 259 437.474 M 382.256 443.645 C 378.626 445.434, 375.322 450.139, 374.377 454.865 L 373.750 458 388.454 458 L 403.159 458 402.474 454.750 C 402.097 452.962, 401.084 449.982, 400.222 448.127 C 397.580 442.438, 389.031 440.305, 382.256 443.645 M 154.329 471.458 C 149.680 473.480, 147.715 478.487, 149.621 483.455 C 150.532 485.829, 155.350 488, 159.700 487.998 C 167.960 487.995, 173.995 481.981, 173.998 473.750 L 174 470 165.750 470.039 C 161.024 470.062, 156.146 470.667, 154.329 471.458" stroke="none" fill="#2192b7" fill-rule="evenodd"/>
</svg>